<svg xmlns="http://www.w3.org/2000/svg" xmlns:xlink="http://www.w3.org/1999/xlink" x="0" y="0" version="1.1" xml:space="preserve" viewBox="0 0 174 29" class="JUrPjL gtYS_z" width="100%" role="img" height="40"><title>Assortment</title><path class="pVrzNP" fill="#fff" d="M122.318 7.42h-1.19V6.386a6.368 6.368 0 00-6.362-6.36 6.368 6.368 0 00-6.36 6.36V7.42h-1.191c-1.63 0-3 1.273-3.121 2.898l-1.137 15.253a3.139 3.139 0 00.828 2.363c.59.635 1.426 1 2.293 1h17.376c.868 0 1.704-.365 2.295-1 .59-.636.892-1.497.827-2.363l-1.137-15.253a3.143 3.143 0 00-3.12-2.898zm-11.916-1.034a4.369 4.369 0 014.364-4.364 4.369 4.369 0 014.365 4.364V7.42h-8.729V6.386zm13.883 20.19a1.122 1.122 0 01-.83.361h-17.377c-.319 0-.613-.128-.83-.362a1.123 1.123 0 01-.3-.855l1.136-15.254a1.138 1.138 0 011.13-1.049h1.192v2.786a.998.998 0 001.996 0V9.417h8.729v2.786a.998.998 0 001.996 0V9.417h1.191c.59 0 1.087.46 1.13 1.05l1.137 15.253c.023.317-.083.621-.3.855zM95.95 6.417a.998.998 0 00-1.997 0c0 5.878-5.024 12.746-9.369 14.694a64.195 64.195 0 00-5.389-3.985c4.815-2.11 8.486-8.615 8.486-13.41a.998.998 0 00-1.997 0c0 4.541-3.902 10.964-8.457 11.986-.065.015-.116.052-.175.078a47.62 47.62 0 00-5.948-3.021c4.623-1.775 8.126-6.39 8.49-11.718a.998.998 0 10-1.991-.136c-.379 5.535-4.696 10.16-9.855 10.595-3.585-1.149-7.168-1.727-10.74-1.727-11.401 0-22.92 5.882-34.239 17.481a.998.998 0 101.43 1.394c8.808-9.028 17.69-14.463 26.483-16.233-1.943 1.737-3.176 4.254-3.176 7.06 0 2.53.986 4.91 2.776 6.7a9.414 9.414 0 006.7 2.775c5.225 0 9.476-4.251 9.476-9.555a9.377 9.377 0 00-2.794-6.662c-.116-.115-.24-.217-.362-.325 6.752 1.352 13.555 4.863 20.338 10.505.069.082.15.15.24.206a81.622 81.622 0 015.94 5.53.994.994 0 001.411.017.998.998 0 00.018-1.412 85.245 85.245 0 00-5.016-4.74c4.78-2.648 9.717-9.595 9.717-16.097zM64.461 19.474c0 4.124-3.354 7.479-7.478 7.479h-.001a7.43 7.43 0 01-5.288-2.19 7.43 7.43 0 01-2.191-5.289c0-4.124 3.355-7.48 7.48-7.48H57.02c4.088 0 7.423 3.318 7.441 7.48zM24.374 8.24a.998.998 0 00.999-.998v-1.7h1.698a.998.998 0 000-1.996h-1.698V1.848a.998.998 0 00-1.997 0v1.698h-1.698a.998.998 0 000 1.997h1.698v1.699c0 .55.447.998.998.998zM28.969 14.434a.998.998 0 00-.999-.999c-9.335 0-12.486-3.15-12.486-12.487a.998.998 0 00-1.997 0c0 9.336-3.15 12.487-12.486 12.487a.998.998 0 000 1.997c9.335 0 12.486 3.151 12.486 12.487a.998.998 0 001.997 0c0-9.336 3.15-12.487 12.486-12.487a.998.998 0 00.999-.998zm-14.476 6.232c-1.079-3.135-3.077-5.148-6.204-6.232 3.117-1.081 5.116-3.08 6.196-6.197 1.085 3.127 3.098 5.126 6.233 6.204-3.134 1.081-5.144 3.09-6.225 6.225z"></path></svg>