<svg xmlns="http://www.w3.org/2000/svg" xmlns:xlink="http://www.w3.org/1999/xlink" x="0" y="0" version="1.1" viewBox="0 0 174 29" xml:space="preserve" class="JUrPjL gtYS_z" width="100%" role="img" height="40"><title>Style Profile</title><path class="pVrzNP" fill="#fff" d="M81.064.01a6.382 6.382 0 00-6.374 6.374v1.042h-1.2a3.146 3.146 0 00-3.125 2.902l-1.14 15.298a3.142 3.142 0 00.828 2.365 3.145 3.145 0 002.297 1.003h17.428c.868 0 1.706-.366 2.297-1.002.591-.637.893-1.5.828-2.366l-1.14-15.298a3.147 3.147 0 00-3.125-2.902h-1.2V6.384A6.382 6.382 0 0081.065.009zm-4.381 6.374c0-2.416 1.965-4.381 4.381-4.381s4.382 1.965 4.382 4.38v1.043h-8.763V6.384zm11.955 3.035c.594 0 1.094.465 1.138 1.057l1.14 15.298c.024.32-.083.627-.302.862a1.129 1.129 0 01-.836.365H72.35a1.13 1.13 0 01-.836-.365 1.13 1.13 0 01-.302-.862l1.14-15.298a1.146 1.146 0 011.138-1.057h1.2v2.8a.997.997 0 001.993 0v-2.8h8.763v2.8a.997.997 0 001.993 0v-2.8h1.2zM114.577 28.881c7.965 0 14.444-6.479 14.444-14.443S122.54-.006 114.577-.006s-14.443 6.48-14.443 14.444 6.48 14.443 14.443 14.443zm0-26.894c6.865 0 12.45 5.586 12.45 12.45s-5.585 12.451-12.45 12.451c-6.865 0-12.45-5.585-12.45-12.45s5.585-12.45 12.45-12.45z"></path><path class="pVrzNP" fill="#fff" d="M114.577 16.331c4.232 0 8.107-2.494 9.872-6.353a.997.997 0 00-1.813-.829 8.887 8.887 0 01-8.059 5.189 8.887 8.887 0 01-8.057-5.189.997.997 0 00-1.813.829 10.886 10.886 0 009.87 6.353zM62.22 11.393L51.156.33a.996.996 0 10-1.41 1.409l11.065 11.064c.194.194.342.42.456.66h-26.97a.997.997 0 000 1.994h26.97c-.114.24-.262.466-.456.66L49.747 27.18a.996.996 0 101.409 1.41L62.22 17.524c.82-.819 1.27-1.907 1.27-3.066s-.45-2.247-1.27-3.066zM1.583 14.66a.997.997 0 00-.996.997V27.39c0 .55.446.996.996.996h11.733c.55 0 .997-.446.997-.996V15.657a.997.997 0 00-.997-.996H1.583zM12.32 26.394H2.58v-9.74h9.74v9.74zM22.663 28.934c4.086 0 7.41-3.324 7.41-7.41 0-4.087-3.324-7.411-7.41-7.411s-7.41 3.324-7.41 7.41c0 4.087 3.324 7.411 7.41 7.411zm0-12.828c2.988 0 5.418 2.43 5.418 5.417s-2.43 5.418-5.418 5.418-5.417-2.43-5.417-5.418 2.43-5.417 5.417-5.417zM16.953 12.508h11.44a.997.997 0 00.863-1.495l-5.73-9.915A.998.998 0 0021.8 1.1l-5.71 9.915a.996.996 0 00.863 1.494zm5.712-8.917l4.001 6.924h-7.988l3.987-6.924zM6.9 13.556a.996.996 0 001.1 0c.281-.187 6.9-4.613 6.9-9.356a4.288 4.288 0 00-4.282-4.206c-.025 0-.05.002-.073 0-1.18 0-2.294.493-3.095 1.312C6.642.476 5.526.009 4.333-.006A4.273 4.273 0 000 4.218c0 4.725 6.619 9.151 6.9 9.338zM4.304 1.987h.028a2.35 2.35 0 012.191 1.48.997.997 0 001.856 0 2.342 2.342 0 012.167-1.48h.032c.595-.037 1.19.217 1.63.642.44.425.689.995.7 1.589 0 2.741-3.542 5.893-5.457 7.29-1.915-1.397-5.457-4.547-5.457-7.273a2.298 2.298 0 012.31-2.248z"></path></svg>