<svg xmlns="http://www.w3.org/2000/svg" xmlns:xlink="http://www.w3.org/1999/xlink" x="0" y="0" version="1.1" viewBox="0 0 174 29" xml:space="preserve" class="JUrPjL gtYS_z" width="100%" role="img" height="40"><title>Brands</title><path class="pVrzNP" fill="#fff" d="M23.54 28.995h.105c8.776-.04 16.968-4.978 23.068-13.908a1 1 0 00-.003-1.131C40.527 4.99 32.268.052 23.456.052h-.001C14.643.052 6.383 4.99.198 13.956a1 1 0 00.003 1.139c6.245 8.967 14.53 13.9 23.339 13.9zm-.084-26.943c7.95 0 15.461 4.424 21.211 12.474-5.67 8.012-13.117 12.433-21.03 12.47-7.965.042-15.561-4.39-21.392-12.475C7.996 6.473 15.506 2.05 23.455 2.05z"></path><path class="pVrzNP" fill="#fff" d="M23.454 23.004c4.677 0 8.48-3.804 8.48-8.48s-3.803-8.481-8.48-8.481-8.48 3.804-8.48 8.48 3.804 8.48 8.48 8.48zm0-14.961c3.574 0 6.48 2.907 6.48 6.48s-2.906 6.48-6.48 6.48-6.48-2.906-6.48-6.48 2.907-6.48 6.48-6.48zM58.307 3.613C56.354 1.247 53.974.024 51.657.024a1 1 0 000 2c2.267 0 4.08 1.284 5.47 3.248-1.925 3.13-3.21 7.62-3.21 13.369 0 6.25 1.718 10.315 4.405 10.354 2.658-.039 4.376-4.103 4.376-10.354 0-5.712-1.27-10.182-3.173-13.308 1.7-2.242 3.725-3.309 5.433-3.309 2.266 0 4.079 1.284 5.469 3.248-1.924 3.13-3.21 7.62-3.21 13.369 0 6.25 1.718 10.315 4.405 10.354 2.659-.039 4.376-4.103 4.376-10.354 0-5.713-1.269-10.182-3.173-13.309 1.7-2.241 3.725-3.308 5.433-3.308 2.266 0 4.08 1.284 5.469 3.248-1.924 3.13-3.21 7.62-3.21 13.369 0 6.25 1.718 10.315 4.406 10.354 2.658-.039 4.376-4.103 4.376-10.354 0-5.712-1.27-10.182-3.173-13.308 1.7-2.242 3.724-3.309 5.432-3.309a1 1 0 000-2c-2.317 0-4.696 1.223-6.65 3.59-1.954-2.367-4.334-3.59-6.65-3.59s-4.696 1.223-6.65 3.59c-1.954-2.367-4.334-3.59-6.65-3.59s-4.697 1.223-6.65 3.59zm2.391 15.028c0 5.878-1.566 8.342-2.376 8.354-.839-.012-2.405-2.476-2.405-8.354 0-4.918.973-8.675 2.382-11.362 1.63 3.36 2.399 7.747 2.399 11.362zm24.2-11.362c1.63 3.36 2.4 7.747 2.4 11.362 0 5.878-1.566 8.342-2.375 8.354-.84-.012-2.406-2.476-2.406-8.354 0-4.918.974-8.675 2.382-11.362zm-13.3 0c1.63 3.359 2.4 7.747 2.4 11.362 0 5.878-1.566 8.342-2.376 8.354-.839-.012-2.405-2.476-2.405-8.354 0-4.919.973-8.675 2.381-11.362zM106.644 13.472a6.736 6.736 0 100-13.472 6.736 6.736 0 000 13.472zm0-11.472c2.611 0 4.736 2.125 4.736 4.736s-2.125 4.736-4.736 4.736-4.736-2.125-4.736-4.736S104.033 2 106.644 2zM123.347 0a6.736 6.736 0 100 13.472 6.736 6.736 0 000-13.472zm0 11.472c-2.611 0-4.736-2.125-4.736-4.736S120.736 2 123.347 2c2.612 0 4.736 2.125 4.736 4.736s-2.124 4.736-4.736 4.736zM106.644 29a6.736 6.736 0 100-13.472 6.736 6.736 0 000 13.472zm0-11.472c2.611 0 4.736 2.125 4.736 4.736S109.255 27 106.644 27s-4.736-2.125-4.736-4.736 2.125-4.736 4.736-4.736zM123.347 15.528a6.736 6.736 0 100 13.472 6.736 6.736 0 000-13.472zm0 11.472c-2.611 0-4.736-2.125-4.736-4.736s2.125-4.736 4.736-4.736c2.612 0 4.736 2.125 4.736 4.736S125.959 27 123.347 27z"></path></svg>