<svg xmlns="http://www.w3.org/2000/svg" xmlns:xlink="http://www.w3.org/1999/xlink" x="0" y="0" version="1.1" viewBox="0 0 174 29" xml:space="preserve" class="JUrPjL gtYS_z" width="100%" role="img" height="40"><title>Sustainability</title><path class="pVrzNP" fill="#fff" d="M73.546 28.026a.999.999 0 001.998 0c0-1.033.626-2.248 1.938-3.298 2.698 1.473 6.263 2.094 8.968 2.094 4.486 0 7.291-1.255 7.32-3.305-.029-2.02-2.834-3.275-7.32-3.275-2.705 0-6.27.621-8.968 2.094-1.312-1.05-1.938-2.264-1.938-3.298s.626-2.249 1.938-3.298c2.698 1.473 6.263 2.094 8.968 2.094 4.486 0 7.291-1.255 7.32-3.304-.029-2.02-2.834-3.276-7.32-3.276-2.705 0-6.27.621-8.968 2.094-1.312-1.05-1.938-2.265-1.938-3.298s.626-2.249 1.938-3.298c2.698 1.473 6.263 2.094 8.968 2.094 4.486 0 7.291-1.255 7.32-3.305-.029-2.02-2.834-3.275-7.32-3.275-2.705 0-6.27.62-8.968 2.094-1.312-1.05-1.938-2.265-1.938-3.298a.999.999 0 00-1.998 0c0 1.866.857 3.347 2.185 4.494-1.328 1.147-2.185 2.628-2.185 4.494s.857 3.347 2.185 4.494c-1.328 1.147-2.185 2.628-2.185 4.494s.857 3.347 2.185 4.494c-1.328 1.147-2.185 2.628-2.185 4.494zM86.45 22.24c3.812 0 5.255.975 5.323 1.272-.068.336-1.51 1.313-5.323 1.313-2.943 0-5.252-.518-6.974-1.293 1.722-.774 4.03-1.292 6.974-1.292zm0-8.988c3.814 0 5.256.976 5.323 1.272-.068.337-1.51 1.312-5.323 1.312-2.943 0-5.252-.518-6.974-1.292 1.722-.774 4.03-1.292 6.974-1.292zm0-8.989c3.813 0 5.255.976 5.323 1.273-.068.337-1.51 1.312-5.323 1.312-2.943 0-5.252-.518-6.974-1.292 1.722-.775 4.03-1.293 6.974-1.293zM114.919 28.963c7.978 0 14.468-6.491 14.468-14.469S122.897.025 114.92.025s-14.47 6.491-14.47 14.469 6.492 14.469 14.47 14.469zm0-26.94c6.876 0 12.47 5.594 12.47 12.471s-5.594 12.47-12.47 12.47c-6.877 0-12.471-5.593-12.471-12.47s5.594-12.47 12.47-12.47z"></path><path class="pVrzNP" fill="#fff" d="M114.919 16.39c4.24 0 8.121-2.497 9.888-6.363a1 1 0 00-1.817-.83 8.902 8.902 0 01-8.071 5.196 8.902 8.902 0 01-8.071-5.197 1 1 0 00-1.818.831 10.906 10.906 0 009.889 6.364zM37.12 15.55h4.391v12.476c0 .552.448 1 1 1H58.68a.999.999 0 00.999-1V15.55h4.39a1 1 0 00.983-1.177l-1.555-8.555a3.712 3.712 0 00-1.983-2.644l-5.98-2.99c-.01-.005-.02-.003-.029-.007a.983.983 0 00-.418-.099h-8.984a.983.983 0 00-.418.1c-.01.003-.02.001-.028.006l-5.982 2.99a3.712 3.712 0 00-1.982 2.644l-1.555 8.555a.998.998 0 00.983 1.177zM53.926 2.076c-.433 1.437-1.754 2.494-3.33 2.494s-2.897-1.057-3.33-2.494h6.66zM39.659 6.175c.095-.522.435-.976.91-1.214l4.751-2.375a5.497 5.497 0 005.275 3.982 5.496 5.496 0 005.275-3.982l4.75 2.375c.476.238.816.692.911 1.214l1.341 7.378H59.68v-2.594a.999.999 0 00-1.998 0v16.068H43.509V10.96a.999.999 0 00-1.998 0v2.594h-3.193l1.34-7.378zM14.418 29.024a14.58 14.58 0 009.534-3.544l3.21 3.21a.996.996 0 001.412 0 .999.999 0 000-1.413l-3.2-3.2c2.258-2.553 3.64-5.889 3.64-9.546C29.015 6.54 22.468.039 14.419.039H1.021a.999.999 0 00-1 .999V14.73c0 7.881 6.459 14.294 14.397 14.294zM2.02 2.037h12.4c6.946 0 12.598 5.605 12.598 12.494 0 3.107-1.157 5.946-3.055 8.134L12.92 11.624a.999.999 0 10-1.413 1.413L22.54 24.068a12.598 12.598 0 01-8.122 2.958C7.582 27.026 2.02 21.51 2.02 14.73V2.037z"></path></svg>