<svg xmlns="http://www.w3.org/2000/svg" xmlns:xlink="http://www.w3.org/1999/xlink" x="0" y="0" version="1.1" xml:space="preserve" viewBox="0 0 174 29" class="JUrPjL gtYS_z" width="100%" role="img" height="40"><title>Delivery</title><path class="pVrzNP" fill="#fff" d="M68.4.2c-.1 0-.1 0 0 0h-.1-.1c-2.8 0-5.5 1.4-7.1 3.7C59.5 1.6 56.9.2 54 .2h-.1c-2.3 0-4.4.8-6.1 2.4-1.6 1.6-2.6 3.7-2.6 6.1 0 10.1 14.6 19.9 15.3 20.3.2.1.4.2.5.2s.4-.1.5-.2c.6-.4 15.3-10.2 15.3-20.3C76.9 4 73 .2 68.4.2zm-7.3 26.7C58.4 25 47.2 16.7 47.3 8.6c0-1.7.7-3.4 2-4.6 1.2-1.2 2.8-1.8 4.6-1.8h.2c2.7 0 5.2 1.6 6.2 4.2 0 .3.4.6.8.6s.8-.3.9-.6c1-2.5 3.5-4.2 6.2-4.2 0 0 .1 0 0 0h.1c3.6 0 6.5 2.9 6.5 6.5.1 8-11.1 16.3-13.7 18.2zM123 0c-8 0-14.5 6.5-14.5 14.5S115 29 123 29s14.5-6.5 14.5-14.5S131 0 123 0zm0 27c-6.9 0-12.5-5.6-12.5-12.5S116.1 2 123 2s12.5 5.6 12.5 12.5S129.9 27 123 27z"></path><path class="pVrzNP" fill="#fff" d="M132.4 8.7c-.5-.2-1.1 0-1.3.5-1.4 3.2-4.6 5.2-8.1 5.2s-6.6-2-8.1-5.2c-.2-.5-.8-.7-1.3-.5s-.7.8-.5 1.3c1.8 3.9 5.7 6.4 9.9 6.4s8.1-2.5 9.9-6.4c.2-.5 0-1-.5-1.3zM104.5 14.5c0-1.1-.4-2.2-1.3-3.1L92.1.4c-.4-.4-1-.4-1.4 0s-.4 1 0 1.4l11.1 11.1c.2.2.3.4.5.7H80c-.6 0-1 .4-1 1s.4 1 1 1h22.3c-.1.2-.3.5-.5.7l-11.1 11c-.4.4-.4 1 0 1.4.2.2.5.3.7.3s.5-.1.7-.3l11.1-11.1c.8-.8 1.3-1.9 1.3-3.1 0 .1 0 .1 0 0zM36.3 7.2c-.2-.3-.6-.4-.9-.4h-6.1V1.3C29.2.6 28.7 0 28 0H6.7c-.6 0-1 .4-1 1s.4 1 1 1h20.5v19.6h-9.4c-.8-1.6-2.5-2.8-4.5-2.8S9.7 20 8.9 21.6H6.7c-.6 0-1 .4-1 1s.4 1 1 1h1.6v.3c0 2.8 2.3 5.1 5.1 5.1s5.1-2.3 5.1-5.1v-.3H30v.3c0 2.8 2.3 5.1 5.1 5.1s5.1-2.3 5.1-5.1v-.3h1.5c.7 0 1.3-.6 1.3-1.3v-7.9c0-.3-.1-.5-.3-.7l-6.4-6.5zM13.3 27c-1.7 0-3.1-1.4-3.1-3.1 0-1.7 1.4-3.1 3.1-3.1 1.7 0 3.1 1.4 3.1 3.1 0 1.7-1.4 3.1-3.1 3.1zm21.6 0c-1.7 0-3.1-1.4-3.1-3.1 0-1.7 1.4-3.1 3.1-3.1 1.7 0 3.1 1.4 3.1 3.1 0 1.7-1.4 3.1-3.1 3.1zm5.8-5.4h-1.3c-.8-1.6-2.5-2.8-4.5-2.8s-3.6 1.1-4.5 2.8h-1.2V8.8H35l5.7 6.1v6.7z"></path><path class="pVrzNP" fill="#fff" d="M8.8 11.8c0-.6-.4-1-1-1H1c-.6 0-1 .4-1 1s.4 1 1 1h6.8c.6 0 1-.4 1-1zM3.7 7.4h4c.6 0 1-.4 1-1s-.4-1-1-1h-4c-.6 0-1 .4-1 1s.4 1 1 1zM8.7 17.2c0-.6-.4-1-1-1h-4c-.6 0-1 .4-1 1s.4 1 1 1h4c.6 0 1-.4 1-1z"></path></svg>